<svg width="18" height="18" viewBox="0 0 18 18" fill="none" xmlns="http://www.w3.org/2000/svg">
<path stroke="var(--white)" stroke-linecap="round" stroke-linejoin="round" d="M1.57,7.589 C1.57,4.27 4.269,1.57 7.589,1.57 C10.908,1.57 13.608,4.27 13.608,7.589 C13.608,10.908 10.908,13.608 7.589,13.608 C4.269,13.608 1.57,10.908 1.57,7.589 M17.769,16.659 L13.477,12.367 C14.54,11.062 15.178,9.399 15.178,7.589 C15.178,3.404 11.774,0 7.589,0 C3.404,0 0,3.404 0,7.589 C0,11.774 3.404,15.178 7.589,15.178 C9.399,15.178 11.062,14.539 12.368,13.478 L16.66,17.77 C16.813,17.923 17.013,18 17.215,18 C17.416,18 17.616,17.923 17.769,17.77 C18.076,17.463 18.076,16.966 17.769,16.659"/></svg>

